<?xml version="1.0" encoding="UTF-8" standalone="no"?>
<!-- Created with Inkscape (http://www.inkscape.org/) -->

<svg
   version="1.1"
   id="svg2"
   width="686.24933"
   height="686.24933"
   viewBox="0 0 686.24933 686.24933"
   sodipodi:docname="logoOK.ai"
   xmlns:inkscape="http://www.inkscape.org/namespaces/inkscape"
   xmlns:sodipodi="http://sodipodi.sourceforge.net/DTD/sodipodi-0.dtd"
   xmlns="http://www.w3.org/2000/svg"
   xmlns:svg="http://www.w3.org/2000/svg">
  <defs
     id="defs6">
    <clipPath
       clipPathUnits="userSpaceOnUse"
       id="clipPath16">
      <path
         d="M 0,514.687 H 514.687 V 0 H 0 Z"
         id="path14" />
    </clipPath>
  </defs>
  <sodipodi:namedview
     id="namedview4"
     pagecolor="#ffffff"
     bordercolor="#000000"
     borderopacity="0.25"
     inkscape:showpageshadow="2"
     inkscape:pageopacity="0.0"
     inkscape:pagecheckerboard="0"
     inkscape:deskcolor="#d1d1d1" />
  <g
     id="g8"
     inkscape:groupmode="layer"
     inkscape:label="logoOK"
     transform="matrix(1.3333333,0,0,-1.3333333,0,686.24933)">
    <g
       id="g10">
      <g
         id="g12"
         clip-path="url(#clipPath16)">
        <g
           id="g18"
           transform="translate(514.6867,257.3434)">
          <path
             d="m 0,0 c 0,-142.127 -115.217,-257.343 -257.343,-257.343 -142.127,0 -257.344,115.216 -257.344,257.343 0,142.127 115.217,257.343 257.344,257.343 C -115.217,257.343 0,142.127 0,0"
             style="fill:#000000;fill-opacity:1;fill-rule:nonzero;stroke:none"
             id="path20" />
        </g>
        <g
           id="g22"
           transform="translate(290.9245,328.4441)">
          <path
             d="m 0,0 c 15.633,-19.771 24.147,-43.561 24.622,-68.799 0.019,-0.752 0.029,-1.483 0.029,-2.213 0,-1.314 -0.022,-2.51 -0.067,-3.657 -0.039,-1.257 -0.106,-2.51 -0.186,-3.761 l -41.019,-47.769 -17.325,-20.172 -0.599,-0.697 c -0.075,-0.091 -0.149,-0.176 -0.223,-0.264 -0.578,-0.683 -1.155,-1.366 -1.749,-2.038 l -0.169,-0.193 -0.049,-0.057 c -1.781,-2.012 -3.619,-3.948 -5.497,-5.816 -0.629,-0.629 -1.267,-1.237 -1.905,-1.857 -2.574,-2.435 -5.206,-4.714 -7.897,-6.854 -2.023,-1.591 -4.085,-3.104 -6.168,-4.528 -14.604,-9.969 -30.681,-15.518 -46.651,-15.518 -1.251,0 -2.502,0.045 -3.752,0.114 -11.324,1.846 -22.229,5.393 -32.464,10.52 -17.516,11.256 -29.94,30.516 -35.793,53.755 -2.544,10.096 -3.85,20.948 -3.791,32.223 0.059,13.986 2.219,28.61 6.698,43.253 1.512,4.96 3.251,9.772 5.186,14.418 0.648,1.552 1.315,3.084 2.003,4.596 1.375,3.025 2.838,5.972 4.38,8.839 0.776,1.434 1.562,2.848 2.377,4.233 0.806,1.395 1.64,2.77 2.485,4.115 0.845,1.356 1.709,2.682 2.593,3.988 4.851,7.199 10.233,13.72 16.008,19.495 0.266,0.265 0.531,0.53 0.806,0.786 0.52,0.52 1.041,1.021 1.561,1.512 0.806,0.776 1.621,1.522 2.446,2.259 0.54,0.491 1.09,0.963 1.64,1.444 1.1,0.943 2.21,1.866 3.329,2.76 0.806,0.638 1.611,1.266 2.426,1.875 0.649,0.501 1.306,0.982 1.974,1.454 2.544,1.827 5.127,3.516 7.749,5.068 0.973,0.57 1.955,1.129 2.947,1.66 4.41,2.406 8.917,4.419 13.494,6 1.238,0.432 2.485,0.835 3.742,1.199 1.876,0.55 3.762,1.031 5.647,1.443 1.263,0.265 2.516,0.499 3.779,0.705 9.325,-0.204 18.547,-1.514 27.447,-3.931 C -36.456,33.246 -15.172,19.187 0,0 m 140.284,-182.828 h -1.788 c -9.202,0 -17.502,3.84 -23.394,9.998 -0.383,0.393 -0.747,0.796 -1.11,1.208 L 102,-158.51 l -57.827,63.17 58.799,68.484 0.04,0.049 7.719,8.987 c 0.207,0.255 0.423,0.501 0.639,0.746 3.742,4.115 9.133,6.698 15.134,6.698 h 13.74 v 2.338 H 119.119 84.842 84.813 l -2.014,-2.338 h 0.04 l -55.068,-64.133 -0.043,-0.05 -0.141,-0.156 -0.058,-0.069 c 0.049,1.257 0.068,2.515 0.068,3.772 0,0.756 -0.01,1.512 -0.029,2.268 -1.002,53.271 -37.439,97.86 -86.732,111.177 -9.802,2.662 -20.114,4.076 -30.76,4.076 -64.899,0 -117.522,-52.612 -117.522,-117.521 0,-13.583 2.308,-26.635 6.561,-38.775 2.986,-8.594 6.963,-16.725 11.776,-24.278 6.197,-9.733 13.789,-18.493 22.5,-25.987 0.717,-0.619 1.434,-1.228 2.161,-1.817 0.648,-0.55 1.306,-1.08 1.974,-1.601 0.737,-0.579 1.483,-1.149 2.239,-1.718 19.643,-14.772 44.068,-23.523 70.537,-23.523 7.287,0 14.427,0.668 21.351,1.935 26.596,4.881 50.069,18.719 67.158,38.274 l 1.267,1.483 c 0.059,0.069 0.118,0.137 0.177,0.206 1.304,1.546 2.569,3.131 3.788,4.743 l 0.068,0.079 23.493,27.363 58.672,-64.163 5.824,-6.374 0.04,-0.04 h 34.286 l -0.04,0.04 h 13.898 z"
             style="fill:#ffffff;fill-opacity:1;fill-rule:nonzero;stroke:none"
             id="path24" />
        </g>
        <path
           d="m 146.634,266.16 h 6.25 v -1.274 h -6.25 z m 0,5.097 h 5.219 v -1.274 h -5.219 z m 0,4.551 h 6.068 v -1.274 h -6.068 z m -0.849,0 h 1.456 v -10.923 h -1.456 z"
           style="fill:#ffffff;fill-opacity:1;fill-rule:nonzero;stroke:none"
           id="path26" />
        <g
           id="g28"
           transform="translate(155.13,264.8851)">
          <path
             d="m 0,0 v 5.219 c 0,0.202 -0.003,0.465 -0.008,0.789 -0.005,0.323 -0.015,0.641 -0.03,0.955 -0.015,0.313 -0.043,0.561 -0.084,0.744 l 0.031,0.121 c 0.263,0.101 0.596,0.197 1.001,0.288 0.404,0.091 0.814,0.167 1.229,0.228 0.414,0.06 0.774,0.091 1.077,0.091 0.506,0 0.976,-0.053 1.411,-0.16 C 5.062,8.169 5.448,7.982 5.787,7.714 6.126,7.446 6.389,7.082 6.576,6.622 6.763,6.161 6.857,5.572 6.857,4.854 V 0 H 5.461 V 4.733 C 5.461,5.4 5.365,5.914 5.173,6.273 4.98,6.632 4.703,6.88 4.338,7.017 3.975,7.153 3.54,7.221 3.034,7.221 2.71,7.221 2.364,7.186 1.995,7.115 1.625,7.044 1.305,6.958 1.031,6.857 L 1.274,7.282 C 1.314,7.13 1.345,6.94 1.365,6.713 1.385,6.485 1.396,6.25 1.396,6.008 V 0 Z"
             style="fill:#ffffff;fill-opacity:1;fill-rule:nonzero;stroke:none"
             id="path30" />
        </g>
        <g
           id="g32"
           transform="translate(167.2052,261.2445)">
          <path
             d="m 0,0 c -0.364,0 -0.764,0.032 -1.198,0.099 -0.435,0.065 -0.804,0.164 -1.108,0.296 v 1.243 h 0.121 C -1.851,1.486 -1.484,1.378 -1.084,1.312 -0.685,1.246 -0.324,1.213 0,1.213 c 0.658,0 1.184,0.097 1.578,0.289 0.394,0.191 0.68,0.485 0.857,0.88 0.177,0.394 0.266,0.894 0.266,1.502 v 5.825 c 0,0.242 0.007,0.47 0.022,0.683 0.015,0.212 0.038,0.414 0.069,0.606 l 0.257,-0.425 c -0.222,0.072 -0.472,0.137 -0.751,0.198 -0.278,0.06 -0.579,0.09 -0.902,0.09 -0.667,0 -1.224,-0.113 -1.669,-0.34 -0.445,-0.228 -0.779,-0.567 -1.001,-1.017 -0.223,-0.45 -0.334,-1.009 -0.334,-1.676 0,-0.972 0.251,-1.699 0.751,-2.184 0.501,-0.487 1.252,-0.729 2.253,-0.729 0.283,0 0.551,0.021 0.804,0.061 0.253,0.04 0.531,0.121 0.834,0.243 L 3.004,3.944 C 2.66,3.863 2.356,3.803 2.094,3.762 1.831,3.722 1.578,3.701 1.335,3.701 c -0.87,0 -1.633,0.154 -2.291,0.463 -0.657,0.309 -1.168,0.769 -1.532,1.381 -0.364,0.611 -0.546,1.372 -0.546,2.283 0,0.657 0.099,1.246 0.296,1.767 0.197,0.521 0.488,0.966 0.872,1.335 0.385,0.369 0.85,0.652 1.396,0.849 0.546,0.198 1.168,0.296 1.866,0.296 0.455,0 0.935,-0.053 1.441,-0.159 0.506,-0.106 0.956,-0.235 1.35,-0.387 l 0.03,-0.121 C 4.177,11.226 4.149,10.978 4.134,10.665 4.119,10.351 4.109,10.032 4.104,9.709 4.099,9.385 4.096,9.122 4.096,8.92 V 3.884 C 4.096,3.074 3.937,2.379 3.618,1.798 3.3,1.216 2.834,0.771 2.223,0.463 1.611,0.154 0.87,0 0,0"
             style="fill:#ffffff;fill-opacity:1;fill-rule:nonzero;stroke:none"
             id="path34" />
        </g>
        <g
           id="g36"
           transform="translate(174.882,264.764)">
          <path
             d="m 0,0 c -0.273,0 -0.503,0.086 -0.69,0.258 -0.187,0.172 -0.281,0.409 -0.281,0.713 0,0.303 0.094,0.541 0.281,0.713 0.187,0.171 0.417,0.257 0.69,0.257 0.273,0 0.503,-0.086 0.69,-0.257 C 0.877,1.512 0.971,1.274 0.971,0.971 0.971,0.667 0.877,0.43 0.69,0.258 0.503,0.086 0.273,0 0,0"
             style="fill:#ffffff;fill-opacity:1;fill-rule:nonzero;stroke:none"
             id="path38" />
        </g>
        <g
           id="g40"
           transform="translate(147.4718,247.9613)">
          <path
             d="m 0,0 c 0,-1.236 0.194,-2.28 0.584,-3.133 0.39,-0.853 0.94,-1.498 1.652,-1.934 0.712,-0.437 1.552,-0.655 2.518,-0.655 0.968,0 1.807,0.218 2.519,0.655 0.712,0.436 1.262,1.081 1.652,1.934 C 9.314,-2.28 9.509,-1.236 9.509,0 9.509,1.235 9.314,2.28 8.925,3.133 8.535,3.985 7.985,4.631 7.273,5.067 6.561,5.503 5.722,5.722 4.754,5.722 3.788,5.722 2.948,5.503 2.236,5.067 1.524,4.631 0.974,3.985 0.584,3.133 0.194,2.28 0,1.235 0,0 m -2.015,0 c 0,1.478 0.272,2.78 0.816,3.908 0.544,1.129 1.323,2.008 2.337,2.64 1.014,0.631 2.219,0.947 3.616,0.947 1.397,0 2.602,-0.316 3.617,-0.947 1.014,-0.632 1.793,-1.511 2.337,-2.64 0.544,-1.128 0.816,-2.43 0.816,-3.908 0,-1.478 -0.272,-2.78 -0.816,-3.908 -0.544,-1.129 -1.323,-2.009 -2.337,-2.64 -1.015,-0.632 -2.22,-0.947 -3.617,-0.947 -1.41,0 -2.619,0.315 -3.626,0.947 -1.007,0.631 -1.783,1.511 -2.327,2.64 -0.544,1.128 -0.816,2.43 -0.816,3.908"
             style="fill:#ffffff;fill-opacity:1;fill-rule:nonzero;stroke:none"
             id="path42" />
        </g>
        <g
           id="g44"
           transform="translate(162.0582,240.7083)">
          <path
             d="M 0,0 V 14.506 H 1.612 L 6.729,6.527 H 5.923 l 5.118,7.979 h 1.611 V 0 H 10.718 V 11.343 L 11.141,11.222 7.092,4.996 H 5.561 l -4.05,6.226 0.423,0.121 0,-11.343 z"
             style="fill:#ffffff;fill-opacity:1;fill-rule:nonzero;stroke:none"
             id="path46" />
        </g>
        <path
           d="m 179.627,246.833 h 7.293 v -1.692 h -7.293 z m -2.015,-6.125 1.611,9.671 c 0.135,0.806 0.333,1.518 0.595,2.136 0.262,0.617 0.614,1.141 1.058,1.571 0.443,0.43 1.013,0.752 1.712,0.967 0.698,0.215 1.551,0.322 2.559,0.322 0.483,0 0.97,-0.023 1.461,-0.07 0.489,-0.047 0.997,-0.131 1.521,-0.252 l 0.04,-0.242 c -0.04,-0.269 -0.071,-0.604 -0.091,-1.007 -0.02,-0.403 -0.03,-0.806 -0.03,-1.209 v -1.007 -10.88 h -1.934 v 11.927 c 0,0.269 0.003,0.521 0.01,0.756 0.007,0.235 0.03,0.46 0.07,0.675 l 0.323,-0.584 c -0.175,0.08 -0.386,0.134 -0.635,0.161 -0.249,0.026 -0.521,0.04 -0.816,0.04 -0.886,0 -1.588,-0.121 -2.105,-0.362 -0.518,-0.243 -0.907,-0.605 -1.169,-1.088 -0.262,-0.484 -0.46,-1.102 -0.594,-1.854 l -1.612,-9.671 z"
           style="fill:#ffffff;fill-opacity:1;fill-rule:nonzero;stroke:none"
           id="path48" />
        <g
           id="g50"
           transform="translate(200.5387,240.7083)">
          <path
             d="M 0,0 -3.788,4.916 -1.773,5.157 2.256,0.081 V 0 Z m -7.495,4.352 v 1.773 h 3.466 c 0.752,0 1.38,0.181 1.883,0.544 0.504,0.362 0.88,0.839 1.128,1.431 0.249,0.59 0.373,1.221 0.373,1.893 0,0.967 -0.259,1.679 -0.775,2.136 -0.517,0.456 -1.199,0.684 -2.045,0.684 h -4.03 v 1.693 h 4.11 c 0.967,0 1.806,-0.175 2.519,-0.524 0.711,-0.349 1.262,-0.86 1.652,-1.531 C 1.175,11.779 1.37,10.96 1.37,9.993 1.37,9.093 1.219,8.291 0.917,7.585 0.614,6.88 0.205,6.289 -0.312,5.812 -0.83,5.336 -1.414,4.973 -2.065,4.725 -2.717,4.476 -3.398,4.352 -4.11,4.352 Z m -1.128,10.154 h 1.934 V 0 h -1.934 z"
             style="fill:#ffffff;fill-opacity:1;fill-rule:nonzero;stroke:none"
             id="path52" />
        </g>
        <g
           id="g54"
           transform="translate(216.4953,247.639)">
          <path
             d="M 0,0 4.312,-6.77 V -6.931 H 2.136 l -3.667,5.964 z m -2.659,-1.289 h -2.378 v 1.692 h 2.297 c 0.685,0 1.205,0.161 1.562,0.484 0.355,0.322 0.641,0.724 0.856,1.209 L 2.257,7.575 H 4.271 V 7.414 L 1.451,1.531 C 1.209,1.007 0.907,0.53 0.544,0.101 0.182,-0.329 -0.259,-0.668 -0.775,-0.917 -1.292,-1.165 -1.921,-1.289 -2.659,-1.289 m -3.466,8.864 h 1.934 V -6.931 h -1.934 z"
             style="fill:#ffffff;fill-opacity:1;fill-rule:nonzero;stroke:none"
             id="path56" />
        </g>
        <g
           id="g58"
           transform="translate(223.9498,247.9613)">
          <path
             d="m 0,0 c 0,-1.236 0.194,-2.28 0.584,-3.133 0.39,-0.853 0.94,-1.498 1.652,-1.934 0.712,-0.437 1.552,-0.655 2.518,-0.655 0.968,0 1.807,0.218 2.519,0.655 0.712,0.436 1.262,1.081 1.652,1.934 C 9.314,-2.28 9.509,-1.236 9.509,0 9.509,1.235 9.314,2.28 8.925,3.133 8.535,3.985 7.985,4.631 7.273,5.067 6.561,5.503 5.722,5.722 4.754,5.722 3.788,5.722 2.948,5.503 2.236,5.067 1.524,4.631 0.974,3.985 0.584,3.133 0.194,2.28 0,1.235 0,0 m -2.015,0 c 0,1.478 0.272,2.78 0.816,3.908 0.544,1.129 1.323,2.008 2.337,2.64 1.014,0.631 2.219,0.947 3.616,0.947 1.397,0 2.602,-0.316 3.617,-0.947 1.014,-0.632 1.793,-1.511 2.337,-2.64 0.544,-1.128 0.816,-2.43 0.816,-3.908 0,-1.478 -0.272,-2.78 -0.816,-3.908 -0.544,-1.129 -1.323,-2.009 -2.337,-2.64 -1.015,-0.632 -2.22,-0.947 -3.617,-0.947 -1.41,0 -2.619,0.315 -3.626,0.947 -1.007,0.631 -1.783,1.511 -2.327,2.64 -0.544,1.128 -0.816,2.43 -0.816,3.908"
             style="fill:#ffffff;fill-opacity:1;fill-rule:nonzero;stroke:none"
             id="path60" />
        </g>
        <g
           id="g62"
           transform="translate(238.3746,255.2142)">
          <path
             d="m 0,0 h 1.934 v -9.106 c 0,-1.411 0.282,-2.408 0.846,-2.993 0.564,-0.584 1.41,-0.876 2.539,-0.876 1.128,0 1.974,0.292 2.538,0.876 0.564,0.585 0.847,1.582 0.847,2.993 V 0 h 1.934 v -9.106 c 0,-1.854 -0.454,-3.257 -1.36,-4.211 -0.907,-0.954 -2.227,-1.431 -3.959,-1.431 -1.773,0 -3.103,0.477 -3.989,1.431 C 0.443,-12.363 0,-10.96 0,-9.106 Z"
             style="fill:#ffffff;fill-opacity:1;fill-rule:nonzero;stroke:none"
             id="path64" />
        </g>
        <g
           id="g66"
           transform="translate(251.027,255.2142)">
          <path
             d="M 0,0 H 11.282 V -1.692 H 6.608 V -14.506 H 4.674 v 12.814 l -4.674,0 z"
             style="fill:#ffffff;fill-opacity:1;fill-rule:nonzero;stroke:none"
             id="path68" />
        </g>
        <path
           d="m 264.486,246.833 h 7.292 v -1.692 h -7.292 z m -2.015,-6.125 1.611,9.671 c 0.134,0.806 0.333,1.518 0.595,2.136 0.262,0.617 0.614,1.141 1.058,1.571 0.443,0.43 1.013,0.752 1.712,0.967 0.698,0.215 1.551,0.322 2.559,0.322 0.483,0 0.969,-0.023 1.46,-0.07 0.49,-0.047 0.998,-0.131 1.521,-0.252 l 0.04,-0.242 c -0.04,-0.269 -0.07,-0.604 -0.09,-1.007 -0.02,-0.403 -0.03,-0.806 -0.03,-1.209 v -1.007 -10.88 h -1.935 v 11.927 c 0,0.269 0.003,0.521 0.01,0.756 0.007,0.235 0.03,0.46 0.071,0.675 l 0.323,-0.584 c -0.175,0.08 -0.387,0.134 -0.635,0.161 -0.249,0.026 -0.521,0.04 -0.817,0.04 -0.885,0 -1.587,-0.121 -2.105,-0.362 -0.517,-0.243 -0.906,-0.605 -1.168,-1.088 -0.262,-0.484 -0.46,-1.102 -0.594,-1.854 l -1.612,-9.671 z"
           style="fill:#ffffff;fill-opacity:1;fill-rule:nonzero;stroke:none"
           id="path70" />
      </g>
    </g>
  </g>
</svg>
